<svg width="588" height="447" viewBox="0 0 588 447" fill="none" xmlns="http://www.w3.org/2000/svg">
<rect x="118" y="309" width="244" height="116" fill="#B87359"/>
<path d="M163 227L307 220C281 241.5 311 313 311 313L170.5 316C170.5 316 191.5 308 163 227Z" fill="url(#paint0_linear_20_14)"/>
<path d="M173.5 292C174.014 289.431 177.5 285 177.5 285C177.5 285 181 298.5 179 299.5C177 300.5 179 305.5 179 305.5C179 305.5 182.042 309.013 181.5 311.5C181.035 313.633 179.026 314.317 179 316.5C178.971 318.946 182 320.047 182 322C182 324.929 180.451 325.991 181 328.5C181.487 330.724 183.471 331.285 184 333.5C184.408 335.209 184 337.5 184 337.5C184 337.5 188.188 337.061 190 341C190.898 342.951 193.924 343.141 195 345C196.859 348.211 199.94 345.902 203 348C205.961 350.03 208 353.5 208 353.5C208 353.5 210.757 353.274 212.5 353.5C215.379 353.873 217.679 353.74 219.5 356C220.897 357.733 221 361.5 221 361.5C221 361.5 216.019 366.538 212.5 365.5C210.245 364.835 208 361.5 208 361.5L204.5 357.5C204.5 357.5 200.672 357.813 198.5 356.5C196.258 355.145 195 351.5 195 351.5C195 351.5 190.679 352.801 188.5 351.5C186.1 350.067 185.5 345 185.5 345C185.5 345 180.876 343.246 179 340.5C177.568 338.404 176.5 333.5 176.5 333.5C176.5 333.5 174.184 330.672 173.5 328.5C172.621 325.706 173.5 321 173.5 321C173.5 321 171.349 318.155 171 316C170.476 312.769 173.5 308 173.5 308C173.5 308 170.825 304.532 171 302C171.345 297 173.5 297 173.5 297C173.5 297 173.117 293.915 173.5 292Z" fill="url(#paint1_linear_20_14)"/>
<path d="M122 188L169 206C169 206 180 274.509 174 273C159.804 269.431 148 246 148 246L122 188Z" fill="#DFB96D"/>
<path fill-rule="evenodd" clip-rule="evenodd" d="M13.5 390C0.414547 408.424 0.999997 446.5 0.999997 446.5H587.5C587.5 446.5 552.356 405.49 527.5 381.5C492.961 348.164 473.752 328.046 432.5 303.5C413.514 292.203 382 278 382 278C382 278 379.783 264.934 376 257.5C372.953 251.512 366 243.5 366 243.5C366 243.5 373.362 239.044 376 234.5C380.313 227.07 378.71 220.653 376 212.5C373.104 203.789 369.257 198.909 361.5 194C349.125 186.169 324 194 324 194L330.5 209C330.5 209 343.292 202.079 351.5 204C355.751 204.995 358.479 205.848 361.5 209C365.345 213.012 368.485 217.529 366 222.5C364.889 224.723 363.688 225.822 361.5 227C356.115 229.899 352.474 223.811 346.5 222.5C341.483 221.399 338.477 219.229 333.5 220.5C329.144 221.612 324 227 324 227L308 243.5L290 267.5L273 283.5L257.5 303.5L228.5 333L208.5 360L191.5 390C191.5 390 178.286 382.476 172.5 375C159.656 358.406 168.146 342.474 167.5 321.5C167.182 311.156 167.5 295 167.5 295L172.5 267.5L136 253C127.417 259.974 115 272 115 272L98.5 303.5C98.5 303.5 80.8786 312.977 71.5 321.5C56.0694 335.522 42 366 42 366C42 366 21.9255 378.137 13.5 390Z" fill="#E0E1DB"/>
<path d="M142.5 269C136 278 134.5 268.5 117.5 292.5C110.726 302.063 115.713 315.713 124 324C130.504 330.504 136.857 337.058 142.5 342.976M163.5 365.5C163.5 365.5 154.644 355.711 142.5 342.976M103.5 308.5C103.5 308.5 107.023 318.056 109.5 327.5C117.5 358 134.361 374.864 163.5 391.5C170.477 395.483 178.482 399.487 186.5 400C192.928 400.411 203.155 405.105 209.5 404C224.505 401.388 221.934 402.23 237 400C255.569 397.252 266.638 394.538 282.5 384.5C296.851 375.418 301.159 363.184 310.5 349C320.153 334.341 323.729 328.576 329.5 312C332.139 304.419 331.486 299.138 336 292.5M336 292.5C346.069 277.692 379.5 278 379.5 278M336 292.5L300.5 324L269.5 361.5M237 337L282.5 300.5L320 278L343 263L362.5 242M139 292.5L136.5 315L142.5 342.976" stroke="#B0B1AC" stroke-width="5" stroke-linecap="round"/>
<ellipse cx="137.678" cy="173.737" rx="16.727" ry="34.0198" transform="rotate(-20.7123 137.678 173.737)" fill="#D88E6F"/>
<path d="M311 76C331.106 106.497 320.748 134.823 318.155 172.537C316.073 202.834 314 219.5 302.5 247.5C288.426 268.908 279 279 252 289C216.544 294.267 185.165 264.594 163 234.5C144.753 209.726 152.876 173.079 151.5 148.5C157.5 112.5 157.919 107.419 170 86C185.701 58.1617 200.428 48.9009 228 43C265.072 35.0661 290.133 44.3484 311 76Z" fill="url(#paint2_radial_20_14)"/>
<path d="M115.07 141L192.5 50.5C182.5 66.5 153.5 175 153.5 175C153.5 175 145.07 136 115.07 141Z" fill="#502E20"/>
<path d="M173 121.5C173 121.5 214.465 84.1255 236.5 93C246.881 97.181 247 103 247 103C247 103 277.5 91 287.5 88.5C294.465 86.7587 294.5 105.5 294.5 105.5C294.5 105.5 300.455 97.6626 306 97C316.579 95.736 321.5 120 321.5 130.5C321.5 154.5 320 152.5 316.5 171.5C316.5 215.5 293.931 244 306 244C312.894 238.015 316.885 234.377 321.5 226.5C333.541 205.945 323.648 187.659 331 165C335.859 150.026 340.331 146.199 341.5 130.5C342.319 119.495 336.017 113.988 335 103C333.718 89.1462 338 67.5 338 67.5C338 67.5 335.213 52.726 328.5 47C311.5 32.5 300 24.5 286 11.5C273.428 -0.174109 244.5 1.5 244.5 1.5C244.5 1.5 207.813 -3.6489 191.551 9.5C173 24.5 157.891 18.473 142.551 32.5C127.427 46.3301 127.5 61 119 74C111 100.5 116.475 118.5 111 145.5C98.5 162.5 96.4279 173.621 98.5 192.5C114.5 211.5 133.5 258 162.5 270.5C172.086 274.632 166 244 166 244C166 244 148.403 215.364 133.5 198.5C114.5 177 121 143 126 139C133.5 127 139.128 112.085 156.5 111C163.037 110.592 173 121.5 173 121.5Z" fill="#E3C27F"/>
<path d="M165 95C160.738 69.3889 183 41 183 41L122 112C117.607 92.4058 123.638 79.2008 134 62C144.863 43.9671 156.708 37.4213 175 27C207.413 8.53328 234.106 -3.19395 269 10C292.814 19.0044 318 53 318 53C318 53 305.159 77.5828 290 78L282 41C282 41 267.55 71.0312 250 73C250 73 270.61 33.9181 256 18L218 78C206.013 61.9752 223 27 223 27L165 95Z" fill="url(#paint3_linear_20_14)"/>
<path d="M254.386 221.64C258.418 221.863 262.334 219.444 265.724 221.64C274 227 283 229 283 229C283 229 253 228 228.5 226.5C225.096 226.292 218.5 225.5 218.5 225.5C226.5 225.5 232 224.5 243.047 220.168C246.689 218.74 250.471 221.423 254.386 221.64Z" fill="#C3684D"/>
<path d="M252 241C256.033 241.193 259.901 240.335 263.5 238.5C272.283 234.02 282 229 282 229C282 229 252.166 227.547 227.642 226.516C224.235 226.373 219.5 225.5 219.5 225.5C227.642 230.5 228.5 231.85 237.5 236.5C240.975 238.296 248.083 240.812 252 241Z" fill="#F89286"/>
<path d="M219.5 225.5L233 226.5C233 226.5 245 228 253 228C264.543 228 281.5 229 281.5 229" stroke="#AA3917"/>
<path d="M203 132C210.918 133.185 220 132 224.5 133.5C224.5 133.5 205.013 136.562 201.346 138.729C196.179 134.396 189.1 127.4 191.5 129C193.9 130.6 195.082 130.815 203 132Z" fill="#141212"/>
<path d="M214 134C208.3 134.698 201 138.5 201 138.5C201 138.5 208.016 143.253 214 144.5C218.779 145.496 222.5 145.5 227.5 145.5C230.046 145.5 234 144.5 234 144.5C234 144.5 230.302 135.507 226 134C222.499 132.774 217.682 133.549 214 134Z" fill="url(#paint4_linear_20_14)"/>
<mask id="mask0_20_14" style="mask-type:alpha" maskUnits="userSpaceOnUse" x="216" y="131" width="15" height="15">
<circle cx="223.5" cy="138.5" r="7.5" fill="#8E8986"/>
</mask>
<g mask="url(#mask0_20_14)">
<path d="M214 134C208.3 134.698 201 138.5 201 138.5C201 138.5 208.016 143.253 214 144.5C218.779 145.496 222.5 145.5 227.5 145.5C230.046 145.5 234 144.5 234 144.5C234 144.5 230.302 135.507 226 134C222.499 132.774 217.682 133.549 214 134Z" fill="#7A785F"/>
</g>
<path d="M218 133.5C218 133.5 220.312 133 221.5 133C222.688 133 224.5 133.5 224.5 133.5C224.5 133.5 227 134 228 135C230.5 137.5 230 137.5 230 137.5C230 137.5 226.455 137 223.5 137C220.545 137 216 137.5 216 137.5C216 137.5 216.5 135 218 133.5Z" fill="black"/>
<circle cx="224.5" cy="138.5" r="2.5" fill="#141212"/>
<path d="M292.5 142C287.939 142 281.333 145.833 278.5 148.5C278.5 148.5 282.496 151.363 286 152.5C292 154.446 296 154.856 301.5 152.5C307 150.144 306 148.5 306 148.5C303.5 144.5 300 142 292.5 142Z" fill="url(#paint5_linear_20_14)"/>
<mask id="mask1_20_14" style="mask-type:alpha" maskUnits="userSpaceOnUse" x="278" y="142" width="29" height="13">
<path d="M292.5 142C287.939 142 281.333 145.833 278.5 148.5C278.5 148.5 282.496 151.363 286 152.5C292 154.446 296 154.856 301.5 152.5C307 150.144 306 148.5 306 148.5C303.5 144.5 300 142 292.5 142Z" fill="white"/>
</mask>
<g mask="url(#mask1_20_14)">
<circle cx="298" cy="148" r="7" fill="#7A785F"/>
</g>
<path d="M305 143C301.107 142.146 294.5 142 294.5 142C294.5 142 298.8 142.379 302.6 145.435C306.4 148.491 305.978 149 305.978 149L314.5 142.5C314.5 142.5 309.644 144.019 305 143Z" fill="#141212"/>
<circle cx="297.5" cy="147.5" r="2.5" fill="#141212"/>
<path d="M294.5 142C294.5 142 297.809 141.984 299.5 142.5C301.423 143.086 303.5 145 303.5 145L305 147C305 147 300.26 145.908 297.5 146C294.706 146.094 291 147 291 147C291 147 291.5 143.5 294.5 142Z" fill="#141212"/>
<path d="M276 147C276 147 281.836 140.477 287 138.5C292.106 136.546 297.115 136.517 302 138.5C304.609 139.559 306.5 141.5 306.5 141.5M235 140.5C235 140.5 233.5 135.074 228 131.5C222.5 127.926 212.721 127.919 209.5 128.5C206.279 129.081 201.5 131 201.5 131" stroke="#B3724C"/>
<ellipse cx="249.5" cy="195" rx="4.5" ry="3" fill="#141212"/>
<ellipse cx="271" cy="196.5" rx="3" ry="2.5" fill="#141212"/>
<path d="M254 198C254 198 257.186 202.948 260.5 203.5C263.814 204.052 267.5 199.5 267.5 199.5" stroke="#DF72CE"/>
<path d="M239.5 183.5C239.5 183.5 232.991 186.982 234 191.5C234.725 194.745 236.316 197.042 239.5 198C241.183 198.506 244 198 244 198" stroke="#E7A376"/>
<path d="M266 166.5C264 160 262.5 126 262.5 126H256.5C256.5 126 257.844 151.044 258 166.5C258.029 169.429 258.615 171.136 258 174C257.467 176.482 255.57 177.463 255.5 180C255.425 182.719 258 186.5 258 186.5C258 186.5 264.272 190.034 268 187.5C270.745 185.634 272 181 270.5 177.5C269 174 268 173 266 166.5Z" fill="url(#paint6_linear_20_14)"/>
<circle cx="245" cy="182" r="2" fill="url(#paint7_linear_20_14)"/>
<path d="M285 120C299.5 117.5 303 118 313 122C319.159 124.464 322.5 133 322.5 133C322.5 133 313.203 127.618 307 126.5C296.431 124.595 279.5 128.5 279.5 128.5C279.5 128.5 281.104 120.672 285 120Z" fill="#A37858"/>
<path d="M200.5 108.775C221 106.775 228 108.775 239.5 113.275C242.897 114.605 242 122.275 242 122.275C242 122.275 220.233 116.91 210 116C195.802 114.737 178 123.775 178 123.775C178 123.775 189.989 109.801 200.5 108.775Z" fill="#A37858"/>
<path d="M136.5 199H139L138.5 232H140.5V233.5H135V232H136.5V199Z" fill="url(#paint8_linear_20_14)"/>
<rect x="143" y="204" width="3" height="16" fill="url(#paint9_linear_20_14)"/>
<rect x="149" y="204" width="2" height="28" fill="url(#paint10_linear_20_14)"/>
<defs>
<linearGradient id="paint0_linear_20_14" x1="225" y1="172.5" x2="224" y2="316" gradientUnits="userSpaceOnUse">
<stop stop-color="#F1A781"/>
<stop offset="1" stop-color="#B87359"/>
</linearGradient>
<linearGradient id="paint1_linear_20_14" x1="196" y1="286" x2="205" y2="402" gradientUnits="userSpaceOnUse">
<stop stop-color="#CAC9C9"/>
<stop offset="1" stop-color="#FBFBFB"/>
</linearGradient>
<radialGradient id="paint2_radial_20_14" cx="0" cy="0" r="1" gradientUnits="userSpaceOnUse" gradientTransform="translate(236.993 164.964) rotate(90) scale(124.647 86.1378)">
<stop stop-color="#F5A487"/>
<stop offset="1" stop-color="#F1A780"/>
</radialGradient>
<linearGradient id="paint3_linear_20_14" x1="219.274" y1="4.36268" x2="201" y2="251" gradientUnits="userSpaceOnUse">
<stop stop-color="#E3C27F"/>
<stop offset="1" stop-color="#48AB8D" stop-opacity="0"/>
</linearGradient>
<linearGradient id="paint4_linear_20_14" x1="217.5" y1="133.34" x2="217.5" y2="145.5" gradientUnits="userSpaceOnUse">
<stop stop-color="#868686"/>
<stop offset="1" stop-color="white"/>
</linearGradient>
<linearGradient id="paint5_linear_20_14" x1="292.286" y1="142" x2="292.286" y2="154.117" gradientUnits="userSpaceOnUse">
<stop stop-color="#A8A8A8"/>
<stop offset="1" stop-color="white"/>
</linearGradient>
<linearGradient id="paint6_linear_20_14" x1="263.32" y1="126" x2="263" y2="232.5" gradientUnits="userSpaceOnUse">
<stop stop-color="#F3A584"/>
<stop offset="1" stop-color="#FFCCB5"/>
</linearGradient>
<linearGradient id="paint7_linear_20_14" x1="245" y1="180" x2="245" y2="184" gradientUnits="userSpaceOnUse">
<stop stop-color="#C4C4C4"/>
<stop offset="1" stop-color="white"/>
</linearGradient>
<linearGradient id="paint8_linear_20_14" x1="137.75" y1="199" x2="137.75" y2="233.5" gradientUnits="userSpaceOnUse">
<stop stop-color="#C4C4C4"/>
<stop offset="1" stop-color="white"/>
</linearGradient>
<linearGradient id="paint9_linear_20_14" x1="144.5" y1="204" x2="144" y2="233" gradientUnits="userSpaceOnUse">
<stop stop-color="#C4C4C4"/>
<stop offset="0.90625" stop-color="white"/>
</linearGradient>
<linearGradient id="paint10_linear_20_14" x1="150" y1="204" x2="150" y2="244" gradientUnits="userSpaceOnUse">
<stop stop-color="#C4C4C4"/>
<stop offset="1" stop-color="white"/>
</linearGradient>
</defs>
</svg>
