<svg width="588" height="441" viewBox="0 0 588 441" fill="none" xmlns="http://www.w3.org/2000/svg">
<g id="emma-cartoon">
<rect id="chest" x="118" y="303" width="244" height="116" fill="#B87359"/>
<path id="neck" d="M163 221L307 214C281 235.5 311 307 311 307L170.5 310C170.5 310 191.5 302 163 221Z" fill="url(#paint0_linear_23_5)"/>
<path id="necklace" d="M173.5 286C174.014 283.431 177.5 279 177.5 279C177.5 279 181 292.5 179 293.5C177 294.5 179 299.5 179 299.5C179 299.5 182.042 303.013 181.5 305.5C181.035 307.633 179.026 308.317 179 310.5C178.971 312.946 182 314.047 182 316C182 318.929 180.451 319.991 181 322.5C181.487 324.724 183.471 325.285 184 327.5C184.408 329.209 184 331.5 184 331.5C184 331.5 188.188 331.061 190 335C190.898 336.951 193.924 337.141 195 339C196.859 342.211 199.94 339.902 203 342C205.961 344.03 208 347.5 208 347.5C208 347.5 210.757 347.274 212.5 347.5C215.379 347.873 217.679 347.74 219.5 350C220.897 351.733 221 355.5 221 355.5C221 355.5 216.019 360.538 212.5 359.5C210.245 358.835 208 355.5 208 355.5L204.5 351.5C204.5 351.5 200.672 351.813 198.5 350.5C196.258 349.145 195 345.5 195 345.5C195 345.5 190.679 346.801 188.5 345.5C186.1 344.067 185.5 339 185.5 339C185.5 339 180.876 337.246 179 334.5C177.568 332.404 176.5 327.5 176.5 327.5C176.5 327.5 174.184 324.672 173.5 322.5C172.621 319.706 173.5 315 173.5 315C173.5 315 171.349 312.155 171 310C170.476 306.769 173.5 302 173.5 302C173.5 302 170.825 298.532 171 296C171.345 291 173.5 291 173.5 291C173.5 291 173.117 287.915 173.5 286Z" fill="url(#paint1_linear_23_5)"/>
<path id="sweatshirt" fill-rule="evenodd" clip-rule="evenodd" d="M13.5 384C0.414547 402.424 0.999997 440.5 0.999997 440.5H587.5C587.5 440.5 552.356 399.49 527.5 375.5C492.961 342.164 473.752 322.046 432.5 297.5C413.514 286.203 382 272 382 272C382 272 379.783 258.934 376 251.5C372.953 245.512 366 237.5 366 237.5C366 237.5 373.362 233.044 376 228.5C380.313 221.07 378.71 214.653 376 206.5C373.104 197.789 369.257 192.909 361.5 188C349.125 180.169 314.5 195.5 314.5 195.5L312 211C312 211 343.292 196.079 351.5 198C355.751 198.995 358.479 199.848 361.5 203C365.345 207.012 368.485 211.529 366 216.5C364.889 218.723 363.688 219.822 361.5 221C356.115 223.899 352.474 217.811 346.5 216.5C341.483 215.399 338.477 213.229 333.5 214.5C329.144 215.612 324 221 324 221L308 237.5L290 261.5L273 277.5L257.5 297.5L228.5 327L208.5 354L191.5 384C191.5 384 178.286 376.476 172.5 369C159.656 352.406 168.146 336.474 167.5 315.5C167.182 305.156 167.5 289 167.5 289L175 259.5C173.5 259.5 165 221 165 221C156.417 227.974 115 266 115 266L98.5 297.5C98.5 297.5 80.8786 306.977 71.5 315.5C56.0694 329.522 42 360 42 360C42 360 21.9255 372.137 13.5 384Z" fill="#E0E1DB"/>
<path id="sweatshirt details" d="M142.5 263C136 272 134.5 262.5 117.5 286.5C110.726 296.063 115.713 309.713 124 318C130.504 324.504 136.857 331.058 142.5 336.976M163.5 359.5C163.5 359.5 154.644 349.711 142.5 336.976M103.5 302.5C103.5 302.5 107.023 312.056 109.5 321.5C117.5 352 134.361 368.864 163.5 385.5C170.477 389.483 178.482 393.487 186.5 394C192.928 394.411 203.155 399.105 209.5 398C224.505 395.388 221.934 396.23 237 394C255.569 391.252 266.638 388.538 282.5 378.5C296.851 369.418 301.159 357.184 310.5 343C320.153 328.341 323.729 322.576 329.5 306C332.139 298.419 331.486 293.138 336 286.5M336 286.5C346.069 271.692 379.5 272 379.5 272M336 286.5L300.5 318L269.5 355.5M237 331L282.5 294.5L320 272L343 257L362.5 236M139 286.5L136.5 309L142.5 336.976" stroke="#B0B1AC" stroke-width="5" stroke-linecap="round"/>
<g id="face">
<path id="face_2" d="M311 70C331.106 100.497 320.748 128.823 318.155 166.537C316.073 196.834 314 213.5 302.5 241.5C288.426 262.908 279 273 252 283C216.544 288.267 185.165 258.594 163 228.5C144.753 203.726 152.876 167.079 151.5 142.5C157.5 106.5 157.919 101.419 170 80C185.701 52.1617 200.428 42.9009 228 37C265.072 29.0661 290.133 38.3484 311 70Z" fill="url(#paint2_radial_23_5)"/>
</g>
<g id="hair">
<path id="sideburn" d="M162.5 158.5H149.5L124.5 133L143.5 77.5L174.5 74C142.5 133 162.5 158.5 162.5 158.5Z" fill="url(#paint3_linear_23_5)"/>
<path id="hair_2" d="M220.5 82L217.5 72.5C212.139 69.2837 207 85 207 85C207 85 202.609 75.8619 197.5 76C192.531 76.1343 188.5 85 188.5 85L180.5 78L172 87C172 87 167.512 77.5689 164 76C158.932 73.736 156 87 156 87L147 80.5C141.5 79.5 133.598 126.414 129 134C126.351 138.371 122.262 137.463 120 143.5C116.848 151.911 119 164 119 164C119 164 121 174.5 132.5 191.5C132.5 191.5 141 204 152 198.5C152 198.5 155.5 220 163.5 229C166.357 232.214 167.5 250.5 167.5 250.5L159 238.5C154 230 132.5 245.5 132.5 245.5C132.5 245.5 140.986 225 134 223C128.945 221.553 124 230 124 230V201C121.988 202.218 116 204 116 204C116 204 122.924 187.214 116 186C112.776 185.435 108 188.5 108 188.5L112 161C112 161 104 169 104 164L112 141L116 113C116 113 119.123 91.442 124 78.5C129.612 63.61 134.579 49.6889 144 36.5C156.5 19 185 5.5 185 5.5C179 22 226 0 226 0C220 14.5 246 12.5 262.5 5.5C262.5 5.5 260.45 13.8354 275 15.5C290.152 17.2334 301 15.5 301 15.5C290.5 20.5 319 36.5 319 36.5C305.5 42.5 335 65 335 65C326.5 61.5 328.781 70.2479 330 78.5C331.056 85.6498 330.5 97 330.5 97L323 119L322 113V102L319 93.5L314.5 98C314.5 98 314.169 89.3358 310.5 89C308.406 88.8083 305.5 91 305.5 91C305.5 91 304.668 83.4106 301 82C297.542 80.67 292 85 292 85C292 85 289.756 79.2183 286.5 78C281.576 76.1575 275 85 275 85C275 85 270.452 77.961 266 78C262.681 78.0291 258.5 82 258.5 82C258.5 82 259.104 78.264 258.5 76C256.157 67.2132 241.5 82 241.5 82L236 72.5L220.5 82Z" fill="url(#paint4_linear_23_5)"/>
<ellipse id="ear" cx="137.678" cy="167.737" rx="16.727" ry="34.0198" transform="rotate(-20.7123 137.678 167.737)" fill="#D88E6F"/>
</g>
<g id="lips">
<path id="upper-lip" d="M254.386 215.64C258.418 215.863 262.334 213.444 265.724 215.64C274 221 283.5 220.5 283.5 220.5C283.5 220.5 253 222 228.5 220.5C225.096 220.292 218 217 218 217C226.5 217 232 218.5 243.047 214.168C246.689 212.739 250.471 215.423 254.386 215.64Z" fill="#C3684D"/>
<path id="lower-lip" d="M250.99 235.075C255.024 235.268 258.891 234.411 262.49 232.575C271.274 228.095 281.49 220.591 281.49 220.591C281.49 220.591 255.024 221.622 230.5 220.591C227.5 220.465 217.49 217.075 217.49 217.075C225.99 221.575 227.49 225.925 236.49 230.575C239.966 232.371 247.073 234.887 250.99 235.075Z" fill="#F89286"/>
<path id="Vector 2" d="M218.5 217C218.5 217 223.494 219.681 227 220C243.5 221.5 250 221.5 258 221.5C269.543 221.5 282.5 220.5 282.5 220.5" stroke="#AA3917"/>
</g>
<g id="eyes">
<g id="left-eye">
<path id="left-eyelash" d="M203 126C210.918 127.185 220 126 224.5 127.5C224.5 127.5 205.013 130.562 201.346 132.729C196.179 128.396 189.1 121.4 191.5 123C193.9 124.6 195.082 124.815 203 126Z" fill="#141212"/>
<path id="left-eye_2" d="M214 128C208.3 128.698 201 132.5 201 132.5C201 132.5 208.016 137.253 214 138.5C218.779 139.496 222.5 139.5 227.5 139.5C230.046 139.5 234 138.5 234 138.5C234 138.5 230.302 129.507 226 128C222.499 126.774 217.682 127.549 214 128Z" fill="url(#paint5_linear_23_5)"/>
<g id="left-iris">
<mask id="mask0_23_5" style="mask-type:alpha" maskUnits="userSpaceOnUse" x="216" y="125" width="15" height="15">
<circle id="left-eyeball" cx="223.5" cy="132.5" r="7.5" fill="#8E8986"/>
</mask>
<g mask="url(#mask0_23_5)">
<path id="Vector 1" d="M214 128C208.3 128.698 201 132.5 201 132.5C201 132.5 208.016 137.253 214 138.5C218.779 139.496 222.5 139.5 227.5 139.5C230.046 139.5 234 138.5 234 138.5C234 138.5 230.302 129.507 226 128C222.499 126.774 217.682 127.549 214 128Z" fill="#7A785F"/>
</g>
</g>
<path id="left-eyelash-shadow" d="M218 127.5C218 127.5 220.312 127 221.5 127C222.688 127 224.5 127.5 224.5 127.5C224.5 127.5 227 128 228 129C230.5 131.5 230 131.5 230 131.5C230 131.5 226.455 131 223.5 131C220.545 131 216 131.5 216 131.5C216 131.5 216.5 129 218 127.5Z" fill="black"/>
<circle id="left-pupil" cx="224.5" cy="132.5" r="2.5" fill="#141212"/>
</g>
<g id="right-eye">
<path id="right-eye_2" d="M292.5 136C287.939 136 281.333 139.833 278.5 142.5C278.5 142.5 282.496 145.363 286 146.5C292 148.446 296 148.856 301.5 146.5C307 144.144 306 142.5 306 142.5C303.5 138.5 300 136 292.5 136Z" fill="url(#paint6_linear_23_5)"/>
<g id="right-iris">
<mask id="mask1_23_5" style="mask-type:alpha" maskUnits="userSpaceOnUse" x="278" y="136" width="29" height="13">
<path id="right-eye_3" d="M292.5 136C287.939 136 281.333 139.833 278.5 142.5C278.5 142.5 282.496 145.363 286 146.5C292 148.446 296 148.856 301.5 146.5C307 144.144 306 142.5 306 142.5C303.5 138.5 300 136 292.5 136Z" fill="white"/>
</mask>
<g mask="url(#mask1_23_5)">
<circle id="right-eyeball" cx="298" cy="142" r="7" fill="#7A785F"/>
</g>
</g>
<path id="right-eyelash" d="M305 137C301.107 136.146 294.5 136 294.5 136C294.5 136 298.8 136.379 302.6 139.435C306.4 142.491 305.978 143 305.978 143L314.5 136.5C314.5 136.5 309.644 138.019 305 137Z" fill="#141212"/>
<circle id="right-pupil" cx="297.5" cy="141.5" r="2.5" fill="#141212"/>
<path id="Rectangle 1" d="M294.5 136C294.5 136 297.809 135.984 299.5 136.5C301.423 137.086 303.5 139 303.5 139L305 141C305 141 300.26 139.908 297.5 140C294.706 140.094 291 141 291 141C291 141 291.5 137.5 294.5 136Z" fill="#141212"/>
</g>
<path id="eye-lines" d="M276 141C276 141 281.836 134.477 287 132.5C292.106 130.546 297.115 130.517 302 132.5C304.609 133.559 306.5 135.5 306.5 135.5M235 134.5C235 134.5 233.5 129.074 228 125.5C222.5 121.926 212.721 121.919 209.5 122.5C206.279 123.081 201.5 125 201.5 125" stroke="#B3724C"/>
</g>
<g id="nose">
<ellipse id="left-nostril" cx="249.5" cy="189" rx="4.5" ry="3" fill="#141212"/>
<ellipse id="right-nostril" cx="271" cy="190.5" rx="3" ry="2.5" fill="#141212"/>
<path id="septum" d="M254 192C254 192 257.186 196.948 260.5 197.5C263.814 198.052 267.5 193.5 267.5 193.5" stroke="#DF72CE"/>
<path id="left-line" d="M239.5 177.5C239.5 177.5 232.991 180.982 234 185.5C234.725 188.745 236.316 191.042 239.5 192C241.183 192.506 244 192 244 192" stroke="#E7A376"/>
<path id="highlight" d="M266 160.5C264 154 262.5 120 262.5 120H256.5C256.5 120 257.844 145.044 258 160.5C258.029 163.429 258.615 165.136 258 168C257.467 170.482 255.57 171.463 255.5 174C255.425 176.719 258 180.5 258 180.5C258 180.5 264.272 184.034 268 181.5C270.745 179.634 272 175 270.5 171.5C269 168 268 167 266 160.5Z" fill="url(#paint7_linear_23_5)"/>
<circle id="Ellipse 4" cx="245" cy="176" r="2" fill="url(#paint8_linear_23_5)"/>
</g>
<g id="eyebrows">
<path id="right-brow" d="M285 114C299.5 111.5 303 112 313 116C319.159 118.464 322.5 127 322.5 127C322.5 127 313.203 121.618 307 120.5C296.431 118.595 279.5 122.5 279.5 122.5C279.5 122.5 281.104 114.672 285 114Z" fill="#A37858"/>
<path id="left-brow" d="M200.5 102.775C221 100.775 228 102.775 239.5 107.275C242.897 108.605 242 116.275 242 116.275C242 116.275 220.233 110.91 210 110C195.802 108.737 178 117.775 178 117.775C178 117.775 189.989 103.801 200.5 102.775Z" fill="#A37858"/>
</g>
<g id="jewelry">
<path id="jewelry-3" d="M136.5 193H139L138.5 226H140.5V227.5H135V226H136.5V193Z" fill="url(#paint9_linear_23_5)"/>
<rect id="jewelry-2" x="143" y="198" width="3" height="16" fill="url(#paint10_linear_23_5)"/>
<rect id="jewelry-1" x="149" y="198" width="2" height="28" fill="url(#paint11_linear_23_5)"/>
</g>
</g>
<defs>
<linearGradient id="paint0_linear_23_5" x1="225" y1="166.5" x2="224" y2="310" gradientUnits="userSpaceOnUse">
<stop stop-color="#F1A781"/>
<stop offset="1" stop-color="#B87359"/>
</linearGradient>
<linearGradient id="paint1_linear_23_5" x1="196" y1="280" x2="205" y2="396" gradientUnits="userSpaceOnUse">
<stop stop-color="#CAC9C9"/>
<stop offset="1" stop-color="#FBFBFB"/>
</linearGradient>
<radialGradient id="paint2_radial_23_5" cx="0" cy="0" r="1" gradientUnits="userSpaceOnUse" gradientTransform="translate(236.993 158.964) rotate(90) scale(124.647 86.1378)">
<stop stop-color="#F5A487"/>
<stop offset="1" stop-color="#F1A780"/>
</radialGradient>
<linearGradient id="paint3_linear_23_5" x1="159" y1="76.5" x2="158.5" y2="162" gradientUnits="userSpaceOnUse">
<stop stop-color="#502E20"/>
<stop offset="1" stop-color="#F1A680"/>
</linearGradient>
<linearGradient id="paint4_linear_23_5" x1="226.5" y1="59.5" x2="214.5" y2="191" gradientUnits="userSpaceOnUse">
<stop stop-color="#EF5929"/>
<stop offset="1" stop-color="#F86060"/>
</linearGradient>
<linearGradient id="paint5_linear_23_5" x1="217.5" y1="127.34" x2="217.5" y2="139.5" gradientUnits="userSpaceOnUse">
<stop stop-color="#868686"/>
<stop offset="1" stop-color="white"/>
</linearGradient>
<linearGradient id="paint6_linear_23_5" x1="292.286" y1="136" x2="292.286" y2="148.117" gradientUnits="userSpaceOnUse">
<stop stop-color="#A8A8A8"/>
<stop offset="1" stop-color="white"/>
</linearGradient>
<linearGradient id="paint7_linear_23_5" x1="263.32" y1="120" x2="263" y2="226.5" gradientUnits="userSpaceOnUse">
<stop stop-color="#F3A584"/>
<stop offset="1" stop-color="#FFCCB5"/>
</linearGradient>
<linearGradient id="paint8_linear_23_5" x1="245" y1="174" x2="245" y2="178" gradientUnits="userSpaceOnUse">
<stop stop-color="#C4C4C4"/>
<stop offset="1" stop-color="white"/>
</linearGradient>
<linearGradient id="paint9_linear_23_5" x1="137.75" y1="193" x2="137.75" y2="227.5" gradientUnits="userSpaceOnUse">
<stop stop-color="#C4C4C4"/>
<stop offset="1" stop-color="white"/>
</linearGradient>
<linearGradient id="paint10_linear_23_5" x1="144.5" y1="198" x2="144" y2="227" gradientUnits="userSpaceOnUse">
<stop stop-color="#C4C4C4"/>
<stop offset="0.90625" stop-color="white"/>
</linearGradient>
<linearGradient id="paint11_linear_23_5" x1="150" y1="198" x2="150" y2="238" gradientUnits="userSpaceOnUse">
<stop stop-color="#C4C4C4"/>
<stop offset="1" stop-color="white"/>
</linearGradient>
</defs>
</svg>
