<svg width="27" height="40" viewBox="0 0 27 40" fill="none" xmlns="http://www.w3.org/2000/svg">
<path d="M8.59093 36.3637C7.91314 36.3637 7.36365 37.1777 7.36365 38.1819C7.36365 39.186 7.91314 40 8.59093 40H13.5H18.4091C19.0869 40 19.6364 39.1859 19.6364 38.1818C19.6364 37.1777 19.0869 36.3636 18.4091 36.3636H14.7273V3.63633H18.4091C19.0869 3.63633 19.6364 2.82227 19.6364 1.81812C19.6364 0.813984 19.0869 0 18.4091 0H13.5H8.59093C7.91314 0 7.36365 0.814063 7.36365 1.8182C7.36365 2.82234 7.91314 3.63641 8.59093 3.63641H12.2727V36.3637H8.59093Z" fill="#FFAF51"/>
</svg>
